<svg width="20" height="19" viewBox="0 0 20 19" fill="none" xmlns="http://www.w3.org/2000/svg">
<path fill-rule="evenodd" clip-rule="evenodd" d="M5.66933 17.248C2.24469 15.9305 0.0100374 12.8437 0.000128852 9.41681C-0.0209255 5.72348 2.54006 2.43946 6.3391 1.28818C10.1381 0.13689 14.3074 1.38134 16.6588 4.36845C19.0103 7.35556 19.0068 11.4029 16.6501 14.3866L19.5301 17.047C19.8226 17.3175 19.8226 17.7557 19.5301 18.0261C19.2373 18.2963 18.7629 18.2963 18.4701 18.0261L15.6801 15.4489C13.04 17.8563 9.09396 18.5654 5.66933 17.248ZM12.1691 16.0128C15.0547 14.9066 16.9342 12.3028 16.9301 9.41681H16.8901C16.8847 5.49985 13.4603 2.32007 9.22013 2.2947C6.09586 2.29097 3.27717 4.02709 2.0797 6.69273C0.882226 9.35837 1.54208 12.4279 3.75127 14.4687C5.96046 16.5094 9.2834 17.1189 12.1691 16.0128Z" fill="#4B4B4B"/>
</svg>
