<svg width="24" height="24" viewBox="0 0 24 24" fill="none" xmlns="http://www.w3.org/2000/svg">
<path d="M14.7362 6.37035L8.41617 12.7004C8.27322 12.8396 8.1926 13.0308 8.1926 13.2304C8.1926 13.4299 8.27322 13.6211 8.41617 13.7604C8.55668 13.901 8.74732 13.9802 8.94617 13.9804C9.14416 13.976 9.33332 13.8975 9.47617 13.7604L15.7962 7.43035C15.9391 7.29106 16.0197 7.09994 16.0197 6.90035C16.0197 6.70076 15.9391 6.50964 15.7962 6.37035C15.5033 6.0779 15.029 6.0779 14.7362 6.37035Z" fill="#8C8C8C"/>
<path d="M9.46617 10.2904C9.66458 10.288 9.85445 10.2092 9.99617 10.0704L12.1062 7.96035C12.3815 7.66484 12.3734 7.20434 12.0878 6.91873C11.8022 6.63312 11.3417 6.62499 11.0462 6.90035L8.93617 9.01035C8.64371 9.30317 8.64371 9.77753 8.93617 10.0704C9.07901 10.2075 9.26817 10.286 9.46617 10.2904Z" fill="#8C8C8C"/>
<path fill-rule="evenodd" clip-rule="evenodd" d="M22.1062 12.8304L20.4162 4.66035C20.0982 3.11252 18.7363 2.00125 17.1562 2.00035H7.10617C5.50728 1.97729 4.11773 3.09397 3.79617 4.66035L2.10617 12.8304C1.81591 13.7289 2.13432 14.7124 2.89617 15.2704L10.8262 21.0704C11.5917 21.6179 12.6207 21.6179 13.3862 21.0704L21.3162 15.3104C22.0955 14.7468 22.4159 13.7408 22.1062 12.8304ZM20.3262 13.9004L12.3962 19.6704C12.2217 19.791 11.9907 19.791 11.8162 19.6704L3.88617 13.9004C3.70997 13.7779 3.63648 13.5533 3.70617 13.3504C3.71064 13.2904 3.71064 13.2303 3.70617 13.1704L5.44617 5.00035C5.6102 4.2199 6.30896 3.66847 7.10617 3.69035H17.2062C17.9847 3.69252 18.6558 4.23855 18.8162 5.00035L20.5062 13.1704C20.5017 13.2303 20.5017 13.2904 20.5062 13.3504C20.5759 13.5533 20.5024 13.7779 20.3262 13.9004Z" fill="#8C8C8C"/>
</svg>
