<svg width="30" height="30" viewBox="0 0 30 30" fill="none" xmlns="http://www.w3.org/2000/svg">
<path fill-rule="evenodd" clip-rule="evenodd" d="M8.4375 14.6875C8.4375 11.2357 11.2357 8.4375 14.6875 8.4375C16.3451 8.4375 17.9348 9.09598 19.1069 10.2681C20.279 11.4402 20.9375 13.0299 20.9375 14.6875C20.9375 18.1393 18.1393 20.9375 14.6875 20.9375C11.2357 20.9375 8.4375 18.1393 8.4375 14.6875ZM10.6455 16.3617C11.3227 17.9966 12.918 19.0625 14.6875 19.0625C17.1037 19.0625 19.0625 17.1037 19.0625 14.6875C19.0625 12.918 17.9966 11.3227 16.3617 10.6455C14.7269 9.96836 12.8451 10.3427 11.5939 11.5939C10.3427 12.8451 9.96836 14.7269 10.6455 16.3617Z" fill="#009432"/>
<path d="M14.6875 6.875C15.2025 6.86827 15.6183 6.45245 15.625 5.9375V2.1875C15.625 1.66973 15.2053 1.25 14.6875 1.25C14.1697 1.25 13.75 1.66973 13.75 2.1875V5.9375C13.7567 6.45245 14.1725 6.86827 14.6875 6.875Z" fill="#009432"/>
<path d="M14.6875 22.5C14.1725 22.5067 13.7567 22.9225 13.75 23.4375V27.1875C13.75 27.7053 14.1697 28.125 14.6875 28.125C15.2053 28.125 15.625 27.7053 15.625 27.1875V23.4375C15.6183 22.9225 15.2025 22.5067 14.6875 22.5Z" fill="#009432"/>
<path d="M7.8375 9.1625C8.20352 9.52807 8.79648 9.52807 9.1625 9.1625C9.52807 8.79648 9.52807 8.20352 9.1625 7.8375L6.5125 5.1875C6.27879 4.93668 5.92681 4.83344 5.59464 4.91827C5.26247 5.0031 5.0031 5.26247 4.91827 5.59464C4.83344 5.92681 4.93668 6.27879 5.1875 6.5125L7.8375 9.1625Z" fill="#009432"/>
<path d="M21.5375 20.2125C21.1681 19.8683 20.5925 19.8785 20.2355 20.2355C19.8785 20.5925 19.8683 21.1681 20.2125 21.5375L22.8625 24.1875C23.0374 24.3645 23.2762 24.4637 23.525 24.4625C23.7741 24.4651 24.0135 24.3658 24.1875 24.1875C24.5531 23.8215 24.5531 23.2285 24.1875 22.8625L21.5375 20.2125Z" fill="#009432"/>
<path d="M6.875 14.6875C6.86827 14.1725 6.45245 13.7567 5.9375 13.75H2.1875C1.66973 13.75 1.25 14.1697 1.25 14.6875C1.25 15.2053 1.66973 15.625 2.1875 15.625H5.9375C6.45245 15.6183 6.86827 15.2025 6.875 14.6875Z" fill="#009432"/>
<path d="M27.1875 13.75H23.4375C22.9197 13.75 22.5 14.1697 22.5 14.6875C22.5 15.2053 22.9197 15.625 23.4375 15.625H27.1875C27.7053 15.625 28.125 15.2053 28.125 14.6875C28.125 14.1697 27.7053 13.75 27.1875 13.75Z" fill="#009432"/>
<path d="M7.8375 20.2125L5.1875 22.8625C4.82193 23.2285 4.82193 23.8215 5.1875 24.1875C5.36153 24.3658 5.60088 24.4651 5.85 24.4625C6.09883 24.4637 6.33764 24.3645 6.5125 24.1875L9.1625 21.5375C9.5067 21.1681 9.49654 20.5925 9.13953 20.2355C8.78251 19.8785 8.20689 19.8683 7.8375 20.2125Z" fill="#009432"/>
<path d="M20.9375 9.4375C21.1863 9.43867 21.4251 9.33955 21.6 9.1625L24.1875 6.5125C24.4383 6.27879 24.5416 5.92681 24.4567 5.59464C24.3719 5.26247 24.1125 5.0031 23.7804 4.91827C23.4482 4.83344 23.0962 4.93668 22.8625 5.1875L20.2125 7.8375C19.8469 8.20352 19.8469 8.79648 20.2125 9.1625C20.4022 9.35592 20.6672 9.45644 20.9375 9.4375Z" fill="#009432"/>
</svg>
